<?xml version="1.0" encoding="UTF-8"?>
<svg xmlns="http://www.w3.org/2000/svg" width="1000" height="1000" version="1.1" viewBox="0 0 1000 1000">
  <defs>
    <style>
      .cls-1 {
        fill: #231f20;
      }
    </style>
  </defs>
  <!-- Generator: Adobe Illustrator 28.7.1, SVG Export Plug-In . SVG Version: 1.2.0 Build 142)  -->
  <g>
    <g id="Layer_1">
      <g id="Layer_1-2" data-name="Layer_1">
        <path class="cls-1" d="M281,809.9h-108.8V97.2h457.9c4.9,0,50.1.7,96.1,23.9,65.4,33.1,101.4,95.3,101.4,175.3s-5.6,129.7-34.4,169.2c-38.8,53.4-104.2,60.6-163.1,60.6h-172.5v-108.8h172.5c42.3,0,67.5-5.4,75.2-15.9,13.6-18.7,13.6-79.4,13.6-105.3,0-51.3-23.9-69.1-41.8-78.3-22.8-11.5-46.8-12.3-47-12.3h-349.2v604.2Z"/>
        <path class="cls-1" d="M822.2,902.8l-108.1-12v.5c0-.3,2.5-30-12-59.3-17.9-36.4-56-57.8-113.3-63.5-238.8-23.9-238.8-239.3-238.8-241.4l108.6,1.5v-.5c0,.3.5,32.1,18.3,63.7,22.4,39.6,63.7,62.7,122.5,68.6,77,7.7,135.9,36.2,175.3,84.8,55.4,68.3,48.3,148.6,47.3,157.4l.2.2Z"/>
      </g>
    </g>
  </g>
</svg>