<?xml version="1.0" encoding="UTF-8"?>
<svg xmlns="http://www.w3.org/2000/svg" width="1000" height="1000" version="1.1" viewBox="0 0 1000 1000">
  <defs>
    <style>
      .cls-1 {
        fill: #231f20;
      }
    </style>
  </defs>
  <!-- Generator: Adobe Illustrator 28.7.1, SVG Export Plug-In . SVG Version: 1.2.0 Build 142)  -->
  <g>
    <g id="Layer_1">
      <path class="cls-1" d="M366.3,689.2h-66.4V254.1h279.6c3,0,30.6.4,58.7,14.6,39.9,20.2,61.9,58.2,61.9,107s-3.4,79.2-21,103.3c-23.7,32.6-63.6,37-99.6,37h-105.3v-66.4h105.3c25.8,0,41.2-3.3,45.9-9.7,8.3-11.4,8.3-48.5,8.3-64.3,0-31.3-14.6-42.2-25.5-47.8-13.9-7-28.6-7.5-28.7-7.5h-213.2v368.7Z"/>
      <path class="cls-1" d="M696.7,745.9l-66-7.3v.3c0-.2,1.5-18.3-7.3-36.2-10.9-22.2-34.2-35.3-69.2-38.8-145.8-14.6-145.8-146.1-145.8-147.4l66.3.9v-.3c0,.2.3,19.6,11.2,38.9,13.7,24.2,38.9,38.3,74.8,41.9,47,4.7,83,22.1,107,51.8,33.8,41.7,29.5,90.7,28.9,96.1Z"/>
    </g>
  </g>
</svg>